<svg width="185" height="191" viewBox="0 0 185 191" fill="none" xmlns="http://www.w3.org/2000/svg">
<rect y="11" width="185" height="180" rx="15" fill="#084981"/>
<rect x="12" y="20" width="162" height="162" rx="15" fill="#355C7D"/>
<g filter="url(#filter0_d_255_35)">
<path d="M90.3413 134.34C86.888 135.833 82.8747 136.907 78.3013 137.56C73.728 138.213 69.4813 138.54 65.5613 138.54C52.868 138.54 42.928 135.227 35.7413 128.6C28.5547 121.973 24.9613 111.8 24.9613 98.08C24.9613 84.08 28.7413 73.6267 36.3013 66.72C43.8613 59.72 54.5013 56.22 68.2213 56.22C74.7547 56.22 81.568 57.1067 88.6613 58.88C88.6613 60.7467 88.4747 63.5467 88.1013 67.28C87.728 70.92 87.3547 73.4867 86.9813 74.98H78.1613C71.7213 74.98 66.6347 75.12 62.9013 75.4C59.2613 75.5867 57.068 76.0067 56.3213 76.66C54.9213 77.9667 53.848 80.6267 53.1013 84.64C52.3547 88.56 51.9813 92.34 51.9813 95.98C51.9813 102.327 52.7747 107.227 54.3613 110.68C55.948 114.04 57.9547 116.28 60.3813 117.4C62.7147 118.52 66.588 119.08 72.0013 119.08C76.2947 119.08 81.8947 118.707 88.8013 117.96L90.3413 134.34ZM158.339 118.38V137H96.8787V121.46C101.639 117.633 106.165 113.947 110.459 110.4C114.752 106.76 119.559 102.513 124.879 97.66C127.492 95.3267 129.405 92.8067 130.619 90.1C131.832 87.3933 132.439 84.8267 132.439 82.4C132.439 79.88 131.832 77.92 130.619 76.52C129.592 75.4933 124.179 74.98 114.379 74.98L104.999 75.12C103.785 75.2133 102.292 75.26 100.519 75.26C100.239 73.9533 99.912 71.3867 99.5387 67.56C99.2587 63.7333 99.1187 60.8867 99.1187 59.02C109.665 57.1533 118.439 56.22 125.439 56.22C134.959 56.22 142.519 58.04 148.119 61.68C153.812 65.2267 156.659 71.3867 156.659 80.16C156.659 84.36 155.585 88.7 153.439 93.18C151.292 97.5667 147.092 102.187 140.839 107.04C136.639 110.307 131.132 114.18 124.319 118.66L158.339 118.38Z" fill="white"/>
</g>
<defs>
<filter id="filter0_d_255_35" x="24.9613" y="56.22" width="143.377" height="92.32" filterUnits="userSpaceOnUse" color-interpolation-filters="sRGB">
<feFlood flood-opacity="0" result="BackgroundImageFix"/>
<feColorMatrix in="SourceAlpha" type="matrix" values="0 0 0 0 0 0 0 0 0 0 0 0 0 0 0 0 0 0 127 0" result="hardAlpha"/>
<feOffset dx="10" dy="10"/>
<feComposite in2="hardAlpha" operator="out"/>
<feColorMatrix type="matrix" values="0 0 0 0 0.0313726 0 0 0 0 0.286275 0 0 0 0 0.505882 0 0 0 0.466667 0"/>
<feBlend mode="normal" in2="BackgroundImageFix" result="effect1_dropShadow_255_35"/>
<feBlend mode="normal" in="SourceGraphic" in2="effect1_dropShadow_255_35" result="shape"/>
</filter>
</defs>
</svg>
