<svg width="185" height="191" viewBox="0 0 185 191" fill="none" xmlns="http://www.w3.org/2000/svg">
<rect y="11" width="185" height="180" rx="15" fill="#16B177"/>
<rect x="12" y="20" width="162" height="162" rx="15" fill="#56C596"/>
<g filter="url(#filter0_d_255_15)">
<path d="M68.2191 119.5H44.9791L40.7791 137H15.0191L40.7791 57.2H73.6791L98.3191 137H72.4191L68.2191 119.5ZM56.4591 74.42L48.1991 103.96H64.8591L57.0191 74.42H56.4591ZM164.081 118.38V137H102.621V121.46C107.381 117.633 111.908 113.947 116.201 110.4C120.494 106.76 125.301 102.513 130.621 97.66C133.234 95.3267 135.148 92.8067 136.361 90.1C137.574 87.3933 138.181 84.8267 138.181 82.4C138.181 79.88 137.574 77.92 136.361 76.52C135.334 75.4933 129.921 74.98 120.121 74.98L110.741 75.12C109.528 75.2133 108.034 75.26 106.261 75.26C105.981 73.9533 105.654 71.3867 105.281 67.56C105.001 63.7333 104.861 60.8867 104.861 59.02C115.408 57.1533 124.181 56.22 131.181 56.22C140.701 56.22 148.261 58.04 153.861 61.68C159.554 65.2267 162.401 71.3867 162.401 80.16C162.401 84.36 161.328 88.7 159.181 93.18C157.034 97.5667 152.834 102.187 146.581 107.04C142.381 110.307 136.874 114.18 130.061 118.66L164.081 118.38Z" fill="white"/>
</g>
<defs>
<filter id="filter0_d_255_15" x="15.0191" y="56.22" width="159.062" height="90.78" filterUnits="userSpaceOnUse" color-interpolation-filters="sRGB">
<feFlood flood-opacity="0" result="BackgroundImageFix"/>
<feColorMatrix in="SourceAlpha" type="matrix" values="0 0 0 0 0 0 0 0 0 0 0 0 0 0 0 0 0 0 127 0" result="hardAlpha"/>
<feOffset dx="10" dy="10"/>
<feComposite in2="hardAlpha" operator="out"/>
<feColorMatrix type="matrix" values="0 0 0 0 0.0862745 0 0 0 0 0.694118 0 0 0 0 0.466667 0 0 0 0.63 0"/>
<feBlend mode="normal" in2="BackgroundImageFix" result="effect1_dropShadow_255_15"/>
<feBlend mode="normal" in="SourceGraphic" in2="effect1_dropShadow_255_15" result="shape"/>
</filter>
</defs>
</svg>
