<svg width="185" height="191" viewBox="0 0 185 191" fill="none" xmlns="http://www.w3.org/2000/svg">
<rect y="11" width="185" height="180" rx="15" fill="#D28112"/>
<rect x="12" y="20" width="162" height="162" rx="15" fill="#FF9F1C"/>
<g filter="url(#filter0_d_255_25)">
<path d="M75.4598 94.86C81.8064 95.6067 86.3331 97.7533 89.0398 101.3C91.7464 104.753 93.0998 108.953 93.0998 113.9C93.0998 116.98 92.6331 119.92 91.6998 122.72C90.7664 125.427 89.6464 127.76 88.3398 129.72C87.0331 131.587 85.9131 132.8 84.9798 133.36C81.2464 135.787 69.8598 137 50.8198 137H23.6598V57.2H56.5598C64.0264 57.2 70.0464 57.62 74.6198 58.46C79.2864 59.2067 83.0664 60.98 85.9598 63.78C88.8531 66.4867 90.2998 70.64 90.2998 76.24C90.2998 81.0933 89.0864 85.0133 86.6598 88C84.3264 90.9867 80.5931 93.04 75.4598 94.16V94.86ZM64.2598 74.14C63.3264 73.2067 62.2064 72.6467 60.8998 72.46C59.6864 72.18 57.7264 72.04 55.0198 72.04C52.3131 72.04 50.2598 72.0867 48.8598 72.18V89.26H50.2598C50.7264 89.26 52.6864 89.26 56.1398 89.26C59.5931 89.26 61.8798 89.0267 62.9998 88.56C63.8398 88.1867 64.5864 87.2067 65.2398 85.62C65.9864 84.0333 66.3598 82.3067 66.3598 80.44C66.3598 77.64 65.6598 75.54 64.2598 74.14ZM66.6398 120.9C67.2931 120.34 67.8064 119.313 68.1798 117.82C68.6464 116.233 68.8798 114.647 68.8798 113.06C68.8798 111.1 68.5998 109.28 68.0398 107.6C67.5731 105.827 66.9198 104.567 66.0798 103.82C65.2398 102.98 64.0264 102.42 62.4398 102.14C60.9464 101.86 58.3798 101.72 54.7398 101.72C52.4064 101.72 50.4464 101.767 48.8598 101.86V122.16C53.2464 122.253 57.1664 122.207 60.6198 122.02C64.0731 121.74 66.0798 121.367 66.6398 120.9ZM162.44 118.38V137H100.98V121.46C105.74 117.633 110.267 113.947 114.56 110.4C118.854 106.76 123.66 102.513 128.98 97.66C131.594 95.3267 133.507 92.8067 134.72 90.1C135.934 87.3933 136.54 84.8267 136.54 82.4C136.54 79.88 135.934 77.92 134.72 76.52C133.694 75.4933 128.28 74.98 118.48 74.98L109.1 75.12C107.887 75.2133 106.394 75.26 104.62 75.26C104.34 73.9533 104.014 71.3867 103.64 67.56C103.36 63.7333 103.22 60.8867 103.22 59.02C113.767 57.1533 122.54 56.22 129.54 56.22C139.06 56.22 146.62 58.04 152.22 61.68C157.914 65.2267 160.76 71.3867 160.76 80.16C160.76 84.36 159.687 88.7 157.54 93.18C155.394 97.5667 151.194 102.187 144.94 107.04C140.74 110.307 135.234 114.18 128.42 118.66L162.44 118.38Z" fill="white"/>
</g>
<defs>
<filter id="filter0_d_255_25" x="23.6598" y="56.22" width="148.78" height="90.78" filterUnits="userSpaceOnUse" color-interpolation-filters="sRGB">
<feFlood flood-opacity="0" result="BackgroundImageFix"/>
<feColorMatrix in="SourceAlpha" type="matrix" values="0 0 0 0 0 0 0 0 0 0 0 0 0 0 0 0 0 0 127 0" result="hardAlpha"/>
<feOffset dx="10" dy="10"/>
<feComposite in2="hardAlpha" operator="out"/>
<feColorMatrix type="matrix" values="0 0 0 0 0.823529 0 0 0 0 0.505882 0 0 0 0 0.0705882 0 0 0 0.63 0"/>
<feBlend mode="normal" in2="BackgroundImageFix" result="effect1_dropShadow_255_25"/>
<feBlend mode="normal" in="SourceGraphic" in2="effect1_dropShadow_255_25" result="shape"/>
</filter>
</defs>
</svg>
