<svg width="185" height="191" viewBox="0 0 185 191" fill="none" xmlns="http://www.w3.org/2000/svg">
<rect y="11" width="185" height="180" rx="15" fill="#D4AF18"/>
<rect x="12" y="20" width="162" height="162" rx="15" fill="#FFD93D"/>
<g filter="url(#filter0_d_255_20)">
<path d="M83.2527 94.86C89.5994 95.6067 94.1261 97.7533 96.8327 101.3C99.5394 104.753 100.893 108.953 100.893 113.9C100.893 116.98 100.426 119.92 99.4927 122.72C98.5594 125.427 97.4394 127.76 96.1327 129.72C94.8261 131.587 93.7061 132.8 92.7727 133.36C89.0394 135.787 77.6527 137 58.6127 137H31.4527V57.2H64.3527C71.8194 57.2 77.8394 57.62 82.4127 58.46C87.0794 59.2067 90.8594 60.98 93.7527 63.78C96.6461 66.4867 98.0927 70.64 98.0927 76.24C98.0927 81.0933 96.8794 85.0133 94.4527 88C92.1194 90.9867 88.3861 93.04 83.2527 94.16V94.86ZM72.0527 74.14C71.1194 73.2067 69.9994 72.6467 68.6927 72.46C67.4794 72.18 65.5194 72.04 62.8127 72.04C60.1061 72.04 58.0527 72.0867 56.6527 72.18V89.26H58.0527C58.5194 89.26 60.4794 89.26 63.9327 89.26C67.3861 89.26 69.6727 89.0267 70.7927 88.56C71.6327 88.1867 72.3794 87.2067 73.0327 85.62C73.7794 84.0333 74.1527 82.3067 74.1527 80.44C74.1527 77.64 73.4527 75.54 72.0527 74.14ZM74.4327 120.9C75.0861 120.34 75.5994 119.313 75.9727 117.82C76.4394 116.233 76.6727 114.647 76.6727 113.06C76.6727 111.1 76.3927 109.28 75.8327 107.6C75.3661 105.827 74.7127 104.567 73.8727 103.82C73.0327 102.98 71.8194 102.42 70.2327 102.14C68.7394 101.86 66.1727 101.72 62.5327 101.72C60.1994 101.72 58.2394 101.767 56.6527 101.86V122.16C61.0394 122.253 64.9594 122.207 68.4127 122.02C71.8661 121.74 73.8727 121.367 74.4327 120.9ZM149.093 57.2V137H124.593V77.36L107.233 81L104.573 66.3L129.353 57.2H149.093Z" fill="white"/>
</g>
<defs>
<filter id="filter0_d_255_20" x="31.4527" y="57.2" width="127.64" height="89.8" filterUnits="userSpaceOnUse" color-interpolation-filters="sRGB">
<feFlood flood-opacity="0" result="BackgroundImageFix"/>
<feColorMatrix in="SourceAlpha" type="matrix" values="0 0 0 0 0 0 0 0 0 0 0 0 0 0 0 0 0 0 127 0" result="hardAlpha"/>
<feOffset dx="10" dy="10"/>
<feComposite in2="hardAlpha" operator="out"/>
<feColorMatrix type="matrix" values="0 0 0 0 0.831373 0 0 0 0 0.686275 0 0 0 0 0.0941176 0 0 0 0.63 0"/>
<feBlend mode="normal" in2="BackgroundImageFix" result="effect1_dropShadow_255_20"/>
<feBlend mode="normal" in="SourceGraphic" in2="effect1_dropShadow_255_20" result="shape"/>
</filter>
</defs>
</svg>
